<?xml version="1.0" encoding="UTF-8" standalone="no"?>
<svg width="23px" height="57px" viewBox="0 0 23 57" version="1.1" xmlns="http://www.w3.org/2000/svg" xmlns:xlink="http://www.w3.org/1999/xlink" xmlns:sketch="http://www.bohemiancoding.com/sketch/ns">
    <!-- Generator: Sketch 3.3.2 (12043) - http://www.bohemiancoding.com/sketch -->
    <title>bracket-close</title>
    <desc>Created with Sketch.</desc>
    <defs></defs>
    <g id="Intro" stroke="none" stroke-width="1" fill="none" fill-rule="evenodd" sketch:type="MSPage">
        <path d="M14.1875,47.40625 C14.1875,48.9479244 13.9895853,50.2708278 13.59375,51.375 C13.1979147,52.4791722 12.4843802,53.3802048 11.453125,54.078125 C10.4218698,54.7760452 9.02084219,55.291665 7.25,55.625 C5.47915781,55.958335 3.22918031,56.125 0.5,56.125 L0.5,49.0625 C1.3333375,49.0416666 2.08333,48.9687506 2.75,48.84375 C3.41667,48.7187494 3.98437266,48.4947933 4.453125,48.171875 C4.92187734,47.8489567 5.28645703,47.4062528 5.546875,46.84375 C5.80729297,46.2812472 5.9375,45.5520878 5.9375,44.65625 L5.9375,35.3125 C5.87499969,33.3541569 6.47916031,31.8020891 7.75,30.65625 C9.02083969,29.5104109 10.8437381,28.7604184 13.21875,28.40625 L13.21875,28.03125 C8.48955969,27.3020797 6.06250062,24.9896028 5.9375,21.09375 L5.9375,11.75 C5.9375,10.8541622 5.80729297,10.1250028 5.546875,9.5625 C5.28645703,8.99999719 4.92187734,8.55729328 4.453125,8.234375 C3.98437266,7.91145672 3.41667,7.68750062 2.75,7.5625 C2.08333,7.43749938 1.3333375,7.36458344 0.5,7.34375 L0.5,0.3125 C3.22918031,0.3125 5.47915781,0.479165 7.25,0.8125 C9.02084219,1.145835 10.4218698,1.66145484 11.453125,2.359375 C12.4843802,3.05729516 13.1979147,3.95311953 13.59375,5.046875 C13.9895853,6.14063047 14.1875,7.45832562 14.1875,9 L14.1875,18.9375 C14.1666666,19.937505 14.322915,20.7916631 14.65625,21.5 C14.989585,22.2083369 15.4999966,22.7864561 16.1875,23.234375 C16.8750034,23.6822939 17.7239533,24.0052073 18.734375,24.203125 C19.7447967,24.4010427 20.8958269,24.5 22.1875,24.5 L22.1875,31.96875 C19.5833203,31.96875 17.5989652,32.3958291 16.234375,33.25 C14.8697848,34.1041709 14.1875,35.5416566 14.1875,37.5625 L14.1875,47.40625 Z" id="bracket-close" fill="#F96D38" sketch:type="MSShapeGroup"></path>
    </g>
</svg>