<?xml version="1.0" encoding="UTF-8" standalone="no"?>
<svg width="23px" height="57px" viewBox="0 0 23 57" version="1.1" xmlns="http://www.w3.org/2000/svg" xmlns:xlink="http://www.w3.org/1999/xlink" xmlns:sketch="http://www.bohemiancoding.com/sketch/ns">
    <!-- Generator: Sketch 3.3.2 (12043) - http://www.bohemiancoding.com/sketch -->
    <title>bracket-open</title>
    <desc>Created with Sketch.</desc>
    <defs></defs>
    <g id="Intro" stroke="none" stroke-width="1" fill="none" fill-rule="evenodd" sketch:type="MSPage">
        <path d="M6.921875,33.25 C5.55728484,32.3958291 3.57292969,31.96875 0.96875,31.96875 L0.96875,24.5 C2.26042312,24.5 3.41145328,24.4010427 4.421875,24.203125 C5.43229672,24.0052073 6.28124656,23.6822939 6.96875,23.234375 C7.65625344,22.7864561 8.17187328,22.2083369 8.515625,21.5 C8.85937672,20.7916631 9.01041688,19.937505 8.96875,18.9375 L8.96875,9 C8.96875,7.45832562 9.16666469,6.14063047 9.5625,5.046875 C9.95833531,3.95311953 10.6718698,3.05729516 11.703125,2.359375 C12.7343802,1.66145484 14.1354078,1.145835 15.90625,0.8125 C17.6770922,0.479165 19.9270697,0.3125 22.65625,0.3125 L22.65625,7.34375 C21.8229125,7.36458344 21.0677117,7.43749938 20.390625,7.5625 C19.7135383,7.68750062 19.1406273,7.91145672 18.671875,8.234375 C18.2031227,8.55729328 17.8437512,8.99999719 17.59375,9.5625 C17.3437488,10.1250028 17.21875,10.8541622 17.21875,11.75 L17.21875,21.09375 C17.0937494,24.9896028 14.6562737,27.3020797 9.90625,28.03125 L9.90625,28.40625 C12.3020953,28.7604184 14.1354103,29.5104109 15.40625,30.65625 C16.6770897,31.8020891 17.2812503,33.3541569 17.21875,35.3125 L17.21875,44.65625 C17.21875,45.5520878 17.3437488,46.2812472 17.59375,46.84375 C17.8437512,47.4062528 18.2031227,47.8489567 18.671875,48.171875 C19.1406273,48.4947933 19.7135383,48.7187494 20.390625,48.84375 C21.0677117,48.9687506 21.8229125,49.0416666 22.65625,49.0625 L22.65625,56.125 C19.9270697,56.125 17.6770922,55.958335 15.90625,55.625 C14.1354078,55.291665 12.7343802,54.7760452 11.703125,54.078125 C10.6718698,53.3802048 9.95833531,52.4791722 9.5625,51.375 C9.16666469,50.2708278 8.96875,48.9479244 8.96875,47.40625 L8.96875,37.5625 C8.96875,35.5416566 8.28646516,34.1041709 6.921875,33.25 L6.921875,33.25 Z" id="bracket-open" fill="#F96D38" sketch:type="MSShapeGroup"></path>
    </g>
</svg>