<?xml version="1.0" encoding="UTF-8" standalone="no"?>
<svg width="32px" height="46px" viewBox="0 0 32 46" version="1.1" xmlns="http://www.w3.org/2000/svg" xmlns:xlink="http://www.w3.org/1999/xlink" xmlns:sketch="http://www.bohemiancoding.com/sketch/ns">
    <!-- Generator: Sketch 3.3.2 (12043) - http://www.bohemiancoding.com/sketch -->
    <title>bulb</title>
    <desc>Created with Sketch.</desc>
    <defs></defs>
    <g id="Page-1" stroke="none" stroke-width="1" fill="none" fill-rule="evenodd" sketch:type="MSPage">
        <g id="bulb" sketch:type="MSLayerGroup" fill="#F96D38">
            <path d="M21,40 L11,40 L11,38 L9,38 C9,34 7.588,30.162 5.022,26.999 C2.353,23.706 0.822,19.778 0.822,16.12 C0.822,7.751 7.631,0.971 16,0.971 C24.369,0.971 31.178,7.794 31.178,16.163 C31.178,19.82 29.647,23.698 26.978,26.991 C24.412,30.154 23,34 23,38 L21,38 L21,40 L21,40 Z M12.882,36 L19.118,36 C19.557,31.864 21.206,27.881 23.87,24.595 C25.973,22.002 27.178,18.935 27.178,16.178 C27.178,10.015 22.163,5 16,5 C9.837,5 4.822,10.015 4.822,16.178 C4.822,18.935 6.027,22.002 8.13,24.595 C10.794,27.881 12.442,31.864 12.882,36 L12.882,36 Z" id="Shape" sketch:type="MSShapeGroup"></path>
            <path d="M23,41.408 C23,42.287 22.287,43 21.408,43 L10.592,43 C9.713,43 9,42.287 9,41.408 L9,38 L23,38 L23,41.408 L23,41.408 Z" id="Shape" sketch:type="MSShapeGroup"></path>
            <path d="M16.062,46 L15.969,46 C13.828,46 12,44.203 12,42.062 L12,42 L20,42 L20,42.062 C20,44.203 18.203,46 16.062,46 L16.062,46 Z" id="Shape" sketch:type="MSShapeGroup"></path>
        </g>
    </g>
</svg>
