<svg class="sequence-logo" width="215" height="42" viewBox="0 0 215 42" xmlns="http://www.w3.org/2000/svg"><title>Sequence.js Logo</title><desc>An orange circle with three white dots, progressing in size from left to right. The word Sequence.js in black</desc><g fill="none"><g fill="#282828"><path d="M53.104 30.593c0-.554.265-1.228.795-2.022.53-.794.979-1.192 1.348-1.192.138 0 .438.132.899.397 1.429.843 2.823 1.264 4.183 1.264 2.166 0 3.249-.879 3.249-2.636 0-.77-.346-1.42-1.037-1.95s-1.527-.993-2.506-1.39c-.979-.397-1.953-.855-2.921-1.372-.968-.518-1.797-1.318-2.489-2.401-.691-1.083-1.037-2.438-1.037-4.063 0-1.625.415-3.015 1.244-4.171 1.498-2.095 3.814-3.142 6.948-3.142 1.751 0 3.226.265 4.425.794 1.198.53 1.797 1.107 1.797 1.733 0 .53-.219 1.186-.657 1.968-.438.782-.853 1.174-1.244 1.174-.092 0-.3-.084-.622-.253-.922-.433-1.988-.65-3.197-.65-1.21 0-2.051.217-2.523.65-.472.433-.709.975-.709 1.625s.346 1.228 1.037 1.733c.691.506 1.521.951 2.489 1.336.968.385 1.942.837 2.921 1.354.979.518 1.815 1.318 2.506 2.401.691 1.083 1.037 2.377 1.037 3.882 0 1.505-.225 2.793-.674 3.864-.449 1.071-1.066 1.908-1.849 2.51-1.521 1.156-3.388 1.733-5.6 1.733-2.212 0-4.067-.349-5.565-1.047-1.498-.698-2.247-1.408-2.247-2.131zm20.204.654c-1.486-1.682-2.23-4.11-2.23-7.284 0-3.174.743-5.548 2.23-7.123 1.486-1.575 3.526-2.362 6.118-2.362 2.593 0 4.494.859 5.704 2.577s1.815 3.937 1.815 6.658c0 .286-.236.71-.709 1.271-.472.561-.824.841-1.054.841h-8.815c.115 1.36.507 2.327 1.175 2.899.668.573 1.521.859 2.558.859s2.028-.185 2.973-.555c.945-.37 1.429-.555 1.452-.555.346 0 .732.352 1.158 1.056.426.704.639 1.259.639 1.664 0 .787-.72 1.414-2.16 1.879-1.44.465-2.794.698-4.062.698-3.042 0-5.306-.841-6.792-2.523zm8.659-9.076c0-1.098-.207-1.975-.622-2.631-.415-.656-1.037-.985-1.867-.985-1.705 0-2.742 1.205-3.111 3.616h5.6zm15.209 11.604c-2.351 0-4.183-.865-5.496-2.596-1.314-1.73-1.97-4.093-1.97-7.089 0-2.995.611-5.346 1.832-7.053 1.221-1.707 2.823-2.56 4.805-2.56 1.037 0 1.965.251 2.783.752.818.501 1.435 1.146 1.849 1.933l.346-1.539c.138-.621.807-.931 2.005-.931h.415c1.383 0 2.074.382 2.074 1.146v23.879c0 .764-.691 1.146-2.074 1.146h-.968c-1.383 0-2.074-.382-2.074-1.146v-7.053c-.991.74-2.166 1.11-3.526 1.11zm1.106-4.304c.83 0 1.636-.227 2.42-.68v-7.984c-.784-1.408-1.728-2.112-2.834-2.112-1.982 0-2.973 1.796-2.973 5.388 0 3.592 1.129 5.388 3.388 5.388zm11.58-1.564v-12.271c0-.772.691-1.158 2.074-1.158h.968c1.383 0 2.074.386 2.074 1.158v11.474c0 1.496.691 2.244 2.074 2.244 1.152 0 2.074-.7 2.765-2.099v-11.619c0-.772.691-1.158 2.074-1.158h.968c1.383 0 2.074.386 2.074 1.158v11.474c0 1.496.069 2.751.207 3.764l.207 1.484c0 .386-.467.676-1.4.869-.933.193-1.63.29-2.091.29-.461 0-.766-.048-.916-.145-.15-.097-.271-.259-.363-.489l-.207-.543c-.046-.133-.098-.368-.156-.706-.058-.338-.098-.543-.121-.615-.553.772-1.285 1.424-2.195 1.955-.91.531-1.895.796-2.955.796-1.728 0-3.007-.477-3.837-1.43-.83-.953-1.244-2.431-1.244-4.434zm20.896 3.34c-1.486-1.682-2.23-4.11-2.23-7.284 0-3.174.743-5.548 2.23-7.123 1.486-1.575 3.526-2.362 6.118-2.362 2.593 0 4.494.859 5.704 2.577s1.815 3.937 1.815 6.658c0 .286-.236.71-.709 1.271-.472.561-.824.841-1.054.841h-8.815c.115 1.36.507 2.327 1.175 2.899.668.573 1.521.859 2.558.859s2.028-.185 2.973-.555c.945-.37 1.429-.555 1.452-.555.346 0 .732.352 1.158 1.056.426.704.639 1.259.639 1.664 0 .787-.72 1.414-2.16 1.879-1.44.465-2.794.698-4.062.698-3.042 0-5.306-.841-6.792-2.523zm8.659-9.076c0-1.098-.207-1.975-.622-2.631-.415-.656-1.037-.985-1.867-.985-1.705 0-2.742 1.205-3.111 3.616h5.6zm8.434 10.441v-11.474c0-1.81-.069-3.077-.207-3.801-.138-.724-.207-1.158-.207-1.303 0-.386.467-.676 1.4-.869.933-.193 1.63-.29 2.091-.29.461 0 .766.048.916.145.15.097.271.247.363.452.092.205.161.374.207.507.046.133.098.356.156.67.058.314.098.507.121.579.553-.772 1.29-1.424 2.212-1.955.922-.531 1.901-.796 2.938-.796 1.728 0 3.007.477 3.837 1.43.83.953 1.244 2.431 1.244 4.434v12.271c0 .772-.691 1.158-2.074 1.158h-.968c-1.383 0-2.074-.386-2.074-1.158v-11.474c0-1.496-.691-2.244-2.074-2.244-1.152 0-2.074.7-2.765 2.099v11.619c0 .772-.691 1.158-2.074 1.158h-.968c-1.383 0-2.074-.386-2.074-1.158zm20.706-1.186c-1.429-1.563-2.143-3.961-2.143-7.195 0-3.233.72-5.667 2.16-7.302 1.44-1.635 3.681-2.452 6.723-2.452 1.406 0 2.713.221 3.923.662 1.21.441 1.815 1.044 1.815 1.808 0 .358-.236.907-.709 1.647-.472.74-.847 1.11-1.123 1.11-.092 0-.3-.084-.622-.251-1.014-.525-2.109-.787-3.284-.787-1.175 0-2.074.441-2.696 1.324-.622.883-.933 2.255-.933 4.116 0 1.861.294 3.239.881 4.134.588.895 1.486 1.342 2.696 1.342 1.21 0 2.379-.274 3.509-.823.369-.143.576-.215.622-.215.346 0 .732.352 1.158 1.056.426.704.639 1.271.639 1.7 0 .43-.253.823-.76 1.181-.507.358-1.118.62-1.832.787-1.475.334-2.627.501-3.457.501-2.95 0-5.139-.781-6.568-2.344zm16.851-.179c-1.486-1.682-2.23-4.11-2.23-7.284 0-3.174.743-5.548 2.23-7.123 1.486-1.575 3.526-2.362 6.118-2.362 2.593 0 4.494.859 5.704 2.577s1.815 3.937 1.815 6.658c0 .286-.236.71-.709 1.271-.472.561-.824.841-1.054.841h-8.815c.115 1.36.507 2.327 1.175 2.899.668.573 1.521.859 2.558.859s2.028-.185 2.973-.555c.945-.37 1.429-.555 1.452-.555.346 0 .732.352 1.158 1.056.426.704.639 1.259.639 1.664 0 .787-.72 1.414-2.16 1.879-1.44.465-2.794.698-4.062.698-3.042 0-5.306-.841-6.792-2.523zm8.659-9.076c0-1.098-.207-1.975-.622-2.631-.415-.656-1.037-.985-1.867-.985-1.705 0-2.742 1.205-3.111 3.616h5.6z"/><path d="M201.116 32.805c0-.271.092-.5.277-.687.185-.188.411-.282.677-.282.267 0 .494.094.684.282.189.188.284.417.284.687 0 .271-.095.502-.284.694-.189.192-.417.288-.684.288-.267 0-.492-.096-.677-.288-.185-.192-.277-.423-.277-.694zm4.88 1.205v-7.293h1.445v7.346c0 .733-.217 1.316-.651 1.748-.434.432-.959.648-1.574.648-.615 0-1.176-.231-1.683-.694l.671-1.1c.292.288.587.432.884.432.297 0 .522-.096.677-.288.155-.192.232-.458.232-.799zm-.206-9.336c0-.253.09-.471.271-.655.181-.183.396-.275.645-.275s.464.092.645.275c.181.183.271.402.271.655s-.09.471-.271.655c-.181.183-.396.275-.645.275s-.464-.092-.645-.275c-.181-.183-.271-.402-.271-.655zm8.457 8.518c-.473.397-1.079.596-1.819.596-.499 0-1.017-.092-1.554-.275-.537-.183-1.012-.441-1.425-.773l.696-1.139c.8.611 1.574.917 2.322.917.327 0 .585-.076.774-.229.189-.153.284-.347.284-.583 0-.349-.456-.663-1.367-.943l-.155-.052c-1.427-.393-2.141-1.048-2.141-1.964 0-.646.247-1.163.742-1.552.494-.388 1.137-.583 1.928-.583.791 0 1.539.236 2.244.707l-.542 1.087c-.559-.375-1.165-.563-1.819-.563-.344 0-.623.063-.838.19-.215.127-.322.316-.322.57 0 .227.112.393.335.498.155.079.372.153.651.223s.527.14.742.21c.215.07.423.148.626.236.202.087.419.21.651.367.464.314.696.803.696 1.467 0 .663-.236 1.194-.709 1.591z"/></g><g><path d="M20.645.021c11.391 0 20.625 9.234 20.625 20.625 0 11.39-9.234 20.625-20.625 20.625s-20.625-9.234-20.625-20.625 9.234-20.625 20.625-20.625z" fill="#F96D38"/><path class="circle circle3" d="M30.95 26.94c3.481 0 6.302-2.821 6.302-6.302 0-3.48-2.821-6.302-6.302-6.302-3.481 0-6.302 2.822-6.302 6.302 0 3.481 2.822 6.302 6.302 6.302z" fill="#fff"/><path class="circle circle2" d="M17.774 25.336c2.594 0 4.698-2.103 4.698-4.698 0-2.594-2.103-4.697-4.698-4.697s-4.698 2.104-4.698 4.697c0 2.595 2.104 4.698 4.698 4.698z" fill="#fff"/><path class="circle circle1" d="M7.461 24.085c1.898 0 3.437-1.539 3.437-3.438 0-1.898-1.539-3.437-3.437-3.437s-3.437 1.539-3.437 3.437 1.539 3.438 3.437 3.438z" fill="#fff"/></g></g><a xmlns="http://www.w3.org/2000/svg" id="anchor" xlink:href="http://www.sequencejs.com/" xmlns:xlink="http://www.w3.org/1999/xlink" target="_top">
  <rect x="0" y="0" width="100%" height="100%" fill-opacity="0"/>
</a></svg>
