<?xml version="1.0" standalone="no"?><!-- Generator: Adobe Fireworks CS5.1, Export SVG Extension by Aaron Beall (http://fireworks.abeall.com) . Version: 0.6.1  --><!DOCTYPE svg PUBLIC "-//W3C//DTD SVG 1.1//EN" "http://www.w3.org/Graphics/SVG/1.1/DTD/svg11.dtd"><svg id="Untitled-Page%201" viewBox="0 0 140 37" style="background-color:#ffffff00" version="1.1"	xmlns="http://www.w3.org/2000/svg" xmlns:xlink="http://www.w3.org/1999/xlink" xml:space="preserve"	x="0px" y="0px" width="140px" height="37px">	<g id="Layer%201">		<g>			<path d="M 19.1285 4.2377 C 19.4043 3.8848 19.5508 3.5061 19.5508 3.1101 C 19.5508 2.6023 19.3009 2.1548 18.8182 1.7674 C 18.3355 1.3887 17.7149 1.0703 16.965 0.8293 C 16.2151 0.5883 15.3963 0.4075 14.4998 0.2784 C 13.6034 0.1493 12.7415 0.0804 11.914 0.0804 C 10.828 0.0804 9.7074 0.244 8.561 0.5624 C 7.406 0.8895 6.3458 1.3973 5.3632 2.1031 C 4.3806 2.8089 3.579 3.7212 2.9584 4.8402 C 2.3378 5.9677 2.0275 7.3362 2.0275 8.9371 C 2.0275 9.9958 2.2688 11.0028 2.7602 11.9496 C 3.2428 12.8964 3.8721 13.8087 4.6478 14.6867 C 5.4236 15.5646 6.2941 16.4167 7.2681 17.2344 C 8.2421 18.052 9.2334 18.8525 10.2418 19.6443 C 10.9228 20.178 11.5692 20.703 12.1726 21.228 C 12.776 21.7531 13.3017 22.2695 13.7586 22.7859 C 14.2154 23.3023 14.5774 23.7929 14.8532 24.2749 C 15.1291 24.7569 15.267 25.2217 15.267 25.6521 C 15.267 26.2115 15.0687 26.6849 14.6895 27.0809 C 14.3016 27.4768 13.8361 27.7866 13.3017 28.0276 C 12.7587 28.2514 12.2071 28.4236 11.6554 28.5527 C 11.0952 28.6646 10.6642 28.7248 10.3539 28.7248 C 9.8626 28.7248 9.242 28.6818 8.4921 28.6215 C 7.7336 28.5441 7.0009 28.3719 6.2941 28.1137 C 5.5787 27.8469 4.9667 27.4682 4.4496 26.969 C 3.9324 26.4698 3.6824 25.807 3.6824 24.9807 C 3.6824 24.2491 3.7772 23.6725 3.9841 23.2421 C 4.191 22.8203 4.3203 22.5191 4.3892 22.3384 C 3.0791 22.5793 2.0878 22.9408 1.3983 23.4401 C 0.7087 23.9393 0.3726 24.6364 0.3726 25.5144 C 0.3726 26.487 0.6829 27.3046 1.3207 27.9674 C 1.9585 28.6301 2.7602 29.1896 3.7428 29.663 C 4.7168 30.1192 5.7856 30.4462 6.9406 30.6442 C 8.0956 30.8249 9.1903 30.9282 10.2246 30.9282 C 11.2589 30.9282 12.3277 30.8421 13.4396 30.6872 C 14.5516 30.5237 15.5687 30.231 16.4823 29.8093 C 17.396 29.3703 18.1631 28.8109 18.7665 28.1051 C 19.3698 27.3993 19.6801 26.5042 19.6801 25.4111 C 19.6801 24.4471 19.4905 23.5433 19.1199 22.6998 C 18.7492 21.865 18.2579 21.0817 17.6459 20.3415 C 17.034 19.6013 16.3358 18.9127 15.56 18.2586 C 14.7757 17.6131 13.9741 16.9847 13.1466 16.365 C 12.1726 15.6334 11.2762 14.9363 10.4487 14.2735 C 9.6212 13.6108 8.9144 12.9308 8.3197 12.2423 C 7.7163 11.5537 7.2595 10.8135 6.932 10.0302 C 6.6044 9.2556 6.4407 8.3949 6.4407 7.4481 C 6.4407 6.8628 6.5355 6.2603 6.7251 5.6578 C 6.9147 5.0553 7.2164 4.5045 7.6129 4.0053 C 8.0094 3.5061 8.5007 3.1015 9.0868 2.7745 C 9.6729 2.4474 10.3539 2.2839 11.121 2.2839 C 12.3795 2.2839 13.319 2.5163 13.9223 2.981 C 14.5257 3.4458 14.9825 3.945 15.2928 4.4873 C 15.6031 5.0381 15.8617 5.5373 16.0858 6.0021 C 16.3013 6.4669 16.6461 6.6907 17.1202 6.6907 C 17.2408 6.6907 17.3874 6.6821 17.5597 6.6476 C 17.7321 6.6218 17.9131 6.5616 18.0941 6.4755 C 18.2665 6.3894 18.4131 6.2689 18.5337 6.0968 C 18.6544 5.9247 18.7148 5.7009 18.7148 5.4082 C 18.7148 4.9865 18.8527 4.5992 19.1285 4.2377 L 19.1285 4.2377 Z" fill="#ffffff"/>			<path d="M 35.5658 20.66 C 35.5658 20.1608 35.3417 19.9112 34.9021 19.9112 C 34.6952 19.9112 34.5487 19.9886 34.4625 20.1349 C 34.3763 20.2899 34.2815 20.5653 34.1953 20.9784 C 34.0746 21.5981 33.9195 22.2437 33.7298 22.9064 C 33.5402 23.5778 33.2644 24.1717 32.9196 24.7053 C 32.5662 25.2389 32.118 25.6693 31.575 26.0136 C 31.0233 26.3579 30.3251 26.5214 29.4804 26.5214 C 28.8598 26.5214 28.3341 26.3837 27.9117 26.1083 C 27.4807 25.8328 27.136 25.5144 26.8687 25.1529 C 26.6015 24.7914 26.4033 24.4213 26.274 24.0426 C 26.1361 23.6638 26.0758 23.3798 26.0758 23.1732 L 26.0758 21.908 C 26.2826 21.9769 26.4895 22.0285 26.7136 22.0629 C 26.9377 22.0974 27.1187 22.1146 27.2739 22.1146 C 28.0927 22.1146 28.8254 21.865 29.4718 21.3658 C 30.1183 20.8665 30.6613 20.2382 31.1095 19.4894 C 31.5491 18.7406 31.8853 17.9315 32.1266 17.0622 C 32.3593 16.1929 32.48 15.3924 32.48 14.6608 L 32.4369 14.0239 C 32.4024 13.5075 32.2904 12.9997 32.0835 12.5091 C 31.8766 12.0271 31.5922 11.5967 31.2388 11.2352 C 30.8854 10.8737 30.4717 10.5725 30.0062 10.3401 C 29.5322 10.1163 29.0322 9.9958 28.5064 9.9958 C 27.4204 9.9958 26.4895 10.3659 25.7224 11.0975 C 24.9552 11.8291 24.326 12.7415 23.8261 13.826 C 23.3262 14.9191 22.9555 16.0896 22.7228 17.3462 C 22.4814 18.6029 22.3694 19.7476 22.3694 20.7977 C 22.3694 21.8736 22.4728 22.8978 22.6969 23.8618 C 22.921 24.8344 23.2831 25.6779 23.8002 26.3923 C 24.3174 27.1153 24.9725 27.6747 25.7655 28.0965 C 26.5584 28.5096 27.5324 28.7248 28.6788 28.7248 C 29.8856 28.7248 30.9199 28.458 31.7905 27.933 C 32.6524 27.4079 33.3678 26.7538 33.9281 25.9705 C 34.4883 25.1959 34.9021 24.3524 35.1693 23.4401 C 35.4279 22.5277 35.5658 21.71 35.5658 20.9698 L 35.5658 20.66 L 35.5658 20.66 ZM 30.3596 14.1616 C 30.3596 14.5748 30.2993 15.1084 30.1786 15.7539 C 30.0579 16.4081 29.8769 17.0364 29.627 17.6561 C 29.377 18.2758 29.0495 18.8095 28.6357 19.2484 C 28.222 19.696 27.7221 19.9112 27.136 19.9112 L 26.9205 19.9112 C 26.6533 19.9112 26.4981 19.8337 26.455 19.6702 C 26.4033 19.5152 26.3861 19.3001 26.3861 19.0246 L 26.3861 18.8955 C 26.3861 18.689 26.4378 18.2586 26.5584 17.5959 C 26.6791 16.9331 26.8601 16.2359 27.1101 15.5129 C 27.3601 14.7899 27.679 14.153 28.0582 13.5936 C 28.4375 13.0341 28.9029 12.7501 29.4373 12.7501 C 29.7821 12.7501 30.0235 12.8878 30.1614 13.146 C 30.2907 13.4128 30.3596 13.6624 30.3596 13.9034 L 30.3596 14.1616 L 30.3596 14.1616 Z" fill="#ffffff"/>			<path d="M 48.5811 13.1804 C 48.4432 12.8878 48.2967 12.6468 48.1415 12.4402 C 47.9778 12.2336 47.8312 12.0787 47.702 11.9754 C 47.564 11.8721 47.5037 11.7947 47.5037 11.7344 C 47.5037 11.6828 47.5123 11.5193 47.5468 11.2524 C 47.5727 10.9942 47.633 10.7704 47.7278 10.5983 C 47.7537 10.5122 47.8226 10.452 47.9433 10.4089 C 48.064 10.3659 48.1243 10.3143 48.1243 10.2454 C 48.1243 10.0733 48.0295 9.9097 47.8571 9.7462 C 47.6761 9.5913 47.4606 9.445 47.2106 9.3072 C 46.9607 9.1781 46.728 9.0748 46.5125 9.006 C 46.297 8.9371 46.1505 8.8941 46.0643 8.8941 C 46.0298 8.8941 45.9781 8.9457 45.9091 9.0404 C 45.8402 9.1437 45.7712 9.2556 45.7195 9.3847 C 45.6591 9.5138 45.5988 9.6773 45.5471 9.8667 C 45.4868 10.0561 45.4437 10.1938 45.4178 10.2798 L 45.4178 10.3229 C 44.7282 10.0044 44.1249 9.7806 43.6077 9.6429 C 43.0819 9.5138 42.5303 9.445 41.9442 9.445 C 40.9702 9.445 40.1341 9.6773 39.4445 10.1421 C 38.755 10.6069 38.1775 11.1836 37.7206 11.8808 C 37.2638 12.5779 36.9018 13.344 36.6432 14.1702 C 36.376 15.0051 36.1691 15.797 36.0226 16.5544 C 35.8761 17.3118 35.7899 17.966 35.764 18.5168 C 35.7295 19.0677 35.7209 19.4033 35.7209 19.5238 C 35.7209 20.1522 35.7382 20.8751 35.7813 21.6928 C 35.8244 22.5105 35.945 23.311 36.1347 24.0942 C 36.3243 24.886 36.6173 25.5746 36.9966 26.1685 C 37.3759 26.7624 37.9275 27.1497 38.6343 27.3305 C 38.9532 27.4165 39.3411 27.5801 39.7979 27.8211 C 40.2548 28.0535 40.6168 28.174 40.884 28.174 C 41.3494 28.174 41.7373 28.0104 42.0304 27.7092 C 42.3234 27.3993 42.5648 27.0292 42.7544 26.6075 C 42.944 26.1943 43.0992 25.7726 43.2026 25.3508 C 43.306 24.9377 43.4095 24.602 43.5301 24.361 C 43.4439 24.4213 43.4008 24.5676 43.4008 24.8 L 43.4008 28.174 L 43.4008 34.0612 L 43.4008 34.4141 L 43.4008 34.853 L 43.4008 35.249 L 43.4008 35.4641 C 43.4008 35.6019 43.4095 35.7654 43.4353 35.9461 C 43.4612 36.1097 43.5388 36.2732 43.6594 36.4195 C 43.7801 36.5572 43.9697 36.6864 44.2283 36.8155 C 44.4783 36.9273 44.8317 36.9876 45.2971 36.9876 L 45.5816 36.9446 C 45.6333 36.9446 45.7626 36.936 45.9781 36.9273 C 46.1935 36.9015 46.4177 36.8757 46.659 36.8413 C 46.9004 36.7896 47.1158 36.7122 47.3227 36.6003 C 47.5296 36.4712 47.633 36.3335 47.633 36.1613 C 47.633 35.9548 47.5468 35.8687 47.3917 35.9203 C 47.2279 35.9548 47.1158 35.9031 47.0641 35.7654 C 46.9779 35.5588 46.9176 35.292 46.8831 34.9822 C 46.8486 34.6551 46.8314 34.328 46.8142 34.0009 C 46.7969 33.6567 46.7883 33.3382 46.771 33.0369 C 46.7538 32.7185 46.7366 32.4689 46.7107 32.2709 L 46.7107 17.1913 C 46.7107 16.5286 46.7538 15.9261 46.84 15.3838 C 46.9262 14.8502 47.1676 14.5748 47.5468 14.5748 L 48.2967 14.7469 C 48.6242 14.7469 48.788 14.592 48.788 14.2649 C 48.788 13.8346 48.719 13.4731 48.5811 13.1804 L 48.5811 13.1804 ZM 44.461 13.8518 C 44.3231 14.4543 44.1594 15.1945 43.9697 16.0552 C 43.7801 16.9245 43.556 17.8455 43.306 18.8095 C 43.0561 19.782 42.8147 20.703 42.582 21.5637 C 42.3407 22.433 42.1252 23.1646 41.9183 23.7671 C 41.7114 24.3696 41.5563 24.7311 41.4356 24.8516 C 41.2891 25.0324 41.177 25.1787 41.1081 25.2906 C 41.0305 25.4111 40.8754 25.4627 40.6426 25.4627 C 40.1944 25.4627 39.8496 25.1959 39.5997 24.6537 C 39.3497 24.1114 39.1687 23.4917 39.048 22.8031 C 38.9274 22.1146 38.867 21.4518 38.8498 20.8149 C 38.8325 20.1866 38.8325 19.782 38.8325 19.6099 C 38.8325 19.2828 38.8412 18.6631 38.8756 17.7336 C 38.9015 16.8126 39.0222 15.8572 39.229 14.876 C 39.4359 13.8948 39.7548 13.0169 40.203 12.2509 C 40.6426 11.4848 41.2632 11.0975 42.0562 11.0975 C 42.1941 11.0975 42.4182 11.1491 42.7113 11.2524 C 43.0044 11.3557 43.2974 11.4934 43.5732 11.657 C 43.8491 11.8205 44.099 12.0013 44.3231 12.2078 C 44.5472 12.4144 44.6593 12.6037 44.6593 12.7759 C 44.6593 12.8964 44.5903 13.2493 44.461 13.8518 L 44.461 13.8518 Z" fill="#ffffff"/>			<path d="M 62.536 25.9878 C 62.898 26.2288 63.2687 26.4009 63.6307 26.5214 C 63.9927 26.6419 64.4409 26.6935 64.9667 26.6935 C 65.2425 26.6935 65.5873 26.6505 66.0183 26.5472 C 66.4492 26.4439 66.8716 26.2804 67.2853 26.0394 C 67.6991 25.807 68.0438 25.4799 68.3369 25.0668 C 68.63 24.6537 68.7765 24.1458 68.7765 23.5347 C 68.7765 23.3712 68.7075 23.1991 68.5696 23.0269 C 68.4317 22.8548 68.2335 22.7601 67.9663 22.7601 C 67.656 22.7601 67.4232 22.872 67.2509 23.0786 C 67.0785 23.2851 66.9147 23.5175 66.7509 23.7757 C 66.5785 24.0339 66.3975 24.2749 66.1907 24.4815 C 65.9838 24.6881 65.6994 24.7914 65.3373 24.7914 C 64.9236 24.7914 64.5961 24.5762 64.3461 24.1372 C 64.0875 23.7069 63.8807 23.1646 63.7083 22.5277 C 63.5359 21.8908 63.4238 21.2022 63.3549 20.462 C 63.2859 19.7304 63.2601 19.0246 63.2601 18.3447 C 63.2601 17.8196 63.2687 17.4151 63.2945 17.1397 C 63.3204 16.8643 63.3463 16.5974 63.3721 16.3478 C 63.398 16.0982 63.4497 15.8142 63.5359 15.5043 C 63.6135 15.1945 63.7083 14.7813 63.8117 14.2477 C 63.8117 13.3698 63.6135 12.8447 63.2256 12.664 C 62.8377 12.4919 62.2343 12.3972 61.4069 12.3972 C 61.0707 12.3972 60.7001 12.4316 60.295 12.4919 C 59.8812 12.5521 59.6485 12.6984 59.5968 12.9308 C 59.5968 13.2579 59.6485 13.5333 59.7692 13.7657 C 59.8899 14.0067 59.9502 14.2391 59.9502 14.4715 C 59.8726 18.1725 59.5451 20.9268 58.9762 22.7257 C 58.3987 24.5245 57.5885 25.4197 56.5541 25.4197 C 56.1576 25.4197 55.8473 25.2389 55.6319 24.8602 C 55.4164 24.4901 55.2612 24.0253 55.175 23.4745 C 55.0802 22.9236 55.0285 22.3125 55.0112 21.6584 C 54.994 21.0043 54.9854 20.4018 54.9854 19.8681 L 54.9854 11.9324 C 54.9854 11.7 54.8475 11.4934 54.5889 11.3127 C 54.3217 11.1319 54.0286 10.9856 53.7011 10.8823 C 53.3735 10.779 53.0546 10.7016 52.7443 10.6413 C 52.434 10.5811 52.2099 10.5467 52.0893 10.5467 C 51.8824 10.5467 51.7789 10.5983 51.7703 10.6844 C 51.7531 10.7704 51.7272 10.9168 51.6755 11.1233 L 51.6755 21.7359 C 51.7962 23.8532 52.2185 25.4627 52.9426 26.5472 C 53.6666 27.6231 54.994 28.174 56.9334 28.174 C 57.5971 28.174 58.1487 27.9157 58.5883 27.4079 C 59.0193 26.8915 59.3727 26.3234 59.6485 25.6865 C 59.9243 25.0582 60.1226 24.4471 60.2605 23.8618 C 60.3984 23.2765 60.5104 22.8892 60.6053 22.7085 C 61.0018 24.0339 61.5017 25.0152 62.1223 25.6349 L 62.536 25.9878 L 62.536 25.9878 Z" fill="#ffffff"/>			<path d="M 81.3523 20.66 C 81.3523 20.1608 81.1282 19.9112 80.6886 19.9112 C 80.4817 19.9112 80.3352 19.9886 80.249 20.1349 C 80.1628 20.2899 80.068 20.5653 79.9818 20.9784 C 79.8611 21.5981 79.706 22.2437 79.5163 22.9064 C 79.3267 23.5778 79.0509 24.1717 78.7061 24.7053 C 78.3527 25.2389 77.9045 25.6693 77.3615 26.0136 C 76.8098 26.3579 76.1116 26.5214 75.267 26.5214 C 74.6463 26.5214 74.1206 26.3837 73.6982 26.1083 C 73.2672 25.8328 72.9225 25.5144 72.6553 25.1529 C 72.3881 24.7914 72.1898 24.4213 72.0605 24.0426 C 71.9226 23.6638 71.8623 23.3798 71.8623 23.1732 L 71.8623 21.908 C 72.0691 21.9769 72.276 22.0285 72.5001 22.0629 C 72.7242 22.0974 72.9052 22.1146 73.0604 22.1146 C 73.8792 22.1146 74.6119 21.865 75.2583 21.3658 C 75.9048 20.8665 76.4478 20.2382 76.896 19.4894 C 77.3356 18.7406 77.6718 17.9315 77.9131 17.0622 C 78.1459 16.1929 78.2665 15.3924 78.2665 14.6608 L 78.2234 14.0239 C 78.1889 13.5075 78.0769 12.9997 77.87 12.5091 C 77.6632 12.0271 77.3787 11.5967 77.0253 11.2352 C 76.6719 10.8737 76.2582 10.5725 75.7927 10.3401 C 75.3187 10.1163 74.8187 9.9958 74.2929 9.9958 C 73.2069 9.9958 72.276 10.3659 71.5089 11.0975 C 70.7417 11.8291 70.1125 12.7415 69.6126 13.826 C 69.1127 14.9191 68.742 16.0896 68.5093 17.3462 C 68.268 18.6029 68.1559 19.7476 68.1559 20.7977 C 68.1559 21.8736 68.2593 22.8978 68.4834 23.8618 C 68.7075 24.8344 69.0696 25.6779 69.5867 26.3923 C 70.1039 27.1153 70.759 27.6747 71.552 28.0965 C 72.345 28.5096 73.319 28.7248 74.4653 28.7248 C 75.6721 28.7248 76.7064 28.458 77.577 27.933 C 78.4389 27.4079 79.1543 26.7538 79.7146 25.9705 C 80.2749 25.1959 80.6886 24.3524 80.9558 23.4401 C 81.2144 22.5277 81.3523 21.71 81.3523 20.9698 L 81.3523 20.66 L 81.3523 20.66 ZM 76.1461 14.1616 C 76.1461 14.5748 76.0858 15.1084 75.9651 15.7539 C 75.8445 16.4081 75.6634 17.0364 75.4135 17.6561 C 75.1635 18.2758 74.836 18.8095 74.4222 19.2484 C 74.0085 19.696 73.5086 19.9112 72.9225 19.9112 L 72.707 19.9112 C 72.4398 19.9112 72.2846 19.8337 72.2415 19.6702 C 72.1898 19.5152 72.1726 19.3001 72.1726 19.0246 L 72.1726 18.8955 C 72.1726 18.689 72.2243 18.2586 72.345 17.5959 C 72.4656 16.9331 72.6466 16.2359 72.8966 15.5129 C 73.1466 14.7899 73.4655 14.153 73.8447 13.5936 C 74.224 13.0341 74.6894 12.7501 75.2239 12.7501 C 75.5686 12.7501 75.81 12.8878 75.9479 13.146 C 76.0772 13.4128 76.1461 13.6624 76.1461 13.9034 L 76.1461 14.1616 L 76.1461 14.1616 Z" fill="#ffffff"/>			<path d="M 88.0841 21.2453 C 88.0841 23.1216 88.2651 24.5418 88.6271 25.4971 C 88.9891 26.4525 89.8166 26.9259 91.1181 26.9259 C 91.9542 26.9259 92.661 26.7107 93.2471 26.2632 C 93.8246 25.8242 94.2987 25.282 94.6607 24.6364 C 95.0227 23.9909 95.2899 23.3023 95.4795 22.5621 C 95.6692 21.8305 95.7726 21.1678 95.8071 20.5825 L 95.8071 20.4964 C 95.8071 20.264 95.764 20.0575 95.6864 19.8767 C 95.6002 19.7046 95.4451 19.6099 95.2037 19.6099 C 94.8245 19.6099 94.6262 19.8939 94.6004 20.4448 C 94.5745 20.8924 94.4969 21.3571 94.359 21.8564 C 94.2211 22.3556 94.0573 22.829 93.8591 23.2679 C 93.6522 23.7155 93.4367 24.077 93.1954 24.3696 C 92.954 24.6623 92.6869 24.8086 92.3938 24.8086 C 91.9973 24.8086 91.7301 24.5073 91.5922 23.8876 C 91.4543 23.2679 91.3939 22.5793 91.3939 21.8133 L 91.3939 18.775 L 91.3939 17.3204 C 91.3939 16.9073 91.3767 16.4855 91.3422 16.038 C 91.3077 15.5904 91.2215 15.1773 91.0664 14.7986 C 90.9112 14.4198 90.6958 14.1014 90.4027 13.8432 C 90.1096 13.5936 89.6959 13.4645 89.1443 13.4645 C 88.7133 13.4645 88.2909 13.7227 87.8944 14.2219 C 87.4893 14.7211 87.1101 15.3322 86.7567 16.038 C 86.4033 16.7438 86.0844 17.4926 85.7913 18.2672 C 85.4982 19.0504 85.2483 19.7046 85.0414 20.2296 C 84.9811 20.4362 84.938 20.5567 84.9035 20.5825 L 84.9035 11.6053 C 84.9035 11.4332 84.8001 11.2869 84.5932 11.1491 C 84.3863 11.0114 84.1364 10.8995 83.8433 10.8135 C 83.5502 10.7274 83.2658 10.6585 83.0072 10.6155 C 82.74 10.5725 82.5331 10.5467 82.3952 10.5467 C 81.9815 10.5467 81.7746 10.7446 81.7746 11.1233 L 81.1971 24.2577 C 81.2575 25.0324 81.335 25.6435 81.4212 26.0996 C 81.5074 26.5558 81.6367 26.8915 81.8177 27.1153 C 81.9901 27.3391 82.2487 27.4768 82.5849 27.537 C 82.921 27.5973 83.3606 27.6231 83.895 27.6231 C 84.0674 27.6231 84.3518 27.5973 84.7483 27.537 C 85.1448 27.4768 85.3776 27.3563 85.4379 27.1841 C 85.5758 26.4439 85.7137 25.6693 85.8516 24.8602 C 85.9895 24.0512 86.1533 23.2421 86.3602 22.433 C 86.567 21.624 86.8084 20.8407 87.0842 20.0833 C 87.36 19.3345 87.7307 18.6459 88.1789 18.0262 L 88.0841 21.2453 L 88.0841 21.2453 Z" fill="#ffffff"/>			<path d="M 109.8827 22.3986 C 109.8827 21.9338 109.693 21.6842 109.3138 21.6498 L 109.1759 21.6498 C 108.969 21.6498 108.7707 21.8822 108.5811 22.3297 C 108.3915 22.7859 108.1243 23.2851 107.7881 23.8274 C 107.4433 24.3782 106.9951 24.8774 106.4435 25.3336 C 105.8832 25.7898 105.1506 26.0136 104.2369 26.0136 L 103.7456 25.9705 C 102.4182 25.8586 101.5045 25.2045 100.9874 24.0167 C 100.4702 22.829 100.2202 21.4088 100.2202 19.7476 C 100.2202 19.3173 100.272 18.7234 100.3754 17.9487 C 100.4788 17.1741 100.6685 16.3995 100.9443 15.6248 C 101.2201 14.8502 101.6166 14.1788 102.1165 13.6108 C 102.6165 13.0427 103.2457 12.7501 104.0128 12.7501 C 104.5386 12.7845 104.9178 12.9652 105.1592 13.3009 C 105.3919 13.6366 105.5815 14.0067 105.7281 14.4026 C 105.8746 14.7986 106.0211 15.1687 106.1763 15.5043 C 106.3228 15.84 106.5728 16.0208 106.9262 16.0552 C 107.2451 16.0552 107.4606 15.9003 107.564 15.5732 C 107.6674 15.2461 107.7192 14.7469 107.7192 14.0669 C 107.7192 13.2751 107.7106 12.6296 107.6933 12.1304 C 107.6761 11.6311 107.6416 11.2094 107.5899 10.8651 C 107.5295 10.6241 107.271 10.4262 106.8141 10.254 C 106.3573 10.0819 105.8487 9.9958 105.2971 9.9958 C 104.1421 9.9958 103.0216 10.2798 101.9183 10.8307 C 100.815 11.3901 99.8755 12.139 99.0997 13.0685 C 98.2205 14.1272 97.6344 15.2978 97.3413 16.5888 C 97.0483 17.8799 96.9104 19.1021 96.9104 20.2727 C 96.9104 21.5035 97.0483 22.5966 97.3241 23.5433 C 97.5999 24.4987 97.9706 25.3078 98.436 25.9619 C 98.9015 26.6161 99.4617 27.1325 100.1168 27.494 C 100.7719 27.8555 101.4614 28.0879 102.2027 28.174 L 102.6251 28.174 L 103.0474 28.174 C 104.5472 28.174 105.8487 27.7694 106.952 26.9862 C 108.0553 26.1943 108.9604 24.9549 109.6672 23.2765 C 109.8051 22.8978 109.8827 22.6052 109.8827 22.3986 L 109.8827 22.3986 Z" fill="#ffffff"/>			<path d="M 123.8289 20.66 C 123.8289 20.1608 123.6048 19.9112 123.1652 19.9112 C 122.9584 19.9112 122.8118 19.9886 122.7256 20.1349 C 122.6394 20.2899 122.5446 20.5653 122.4584 20.9784 C 122.3378 21.5981 122.1826 22.2437 121.993 22.9064 C 121.8033 23.5778 121.5275 24.1717 121.1827 24.7053 C 120.8294 25.2389 120.3811 25.6693 119.8381 26.0136 C 119.2865 26.3579 118.5883 26.5214 117.7436 26.5214 C 117.123 26.5214 116.5972 26.3837 116.1748 26.1083 C 115.7439 25.8328 115.3991 25.5144 115.1319 25.1529 C 114.8647 24.7914 114.6664 24.4213 114.5371 24.0426 C 114.3992 23.6638 114.3389 23.3798 114.3389 23.1732 L 114.3389 21.908 C 114.5458 21.9769 114.7526 22.0285 114.9767 22.0629 C 115.2008 22.0974 115.3819 22.1146 115.537 22.1146 C 116.3559 22.1146 117.0885 21.865 117.735 21.3658 C 118.3814 20.8665 118.9244 20.2382 119.3727 19.4894 C 119.8123 18.7406 120.1484 17.9315 120.3897 17.0622 C 120.6225 16.1929 120.7431 15.3924 120.7431 14.6608 L 120.7001 14.0239 C 120.6656 13.5075 120.5535 12.9997 120.3467 12.5091 C 120.1398 12.0271 119.8553 11.5967 119.502 11.2352 C 119.1486 10.8737 118.7348 10.5725 118.2694 10.3401 C 117.7953 10.1163 117.2954 9.9958 116.7696 9.9958 C 115.6835 9.9958 114.7526 10.3659 113.9855 11.0975 C 113.2184 11.8291 112.5892 12.7415 112.0892 13.826 C 111.5893 14.9191 111.2187 16.0896 110.9859 17.3462 C 110.7446 18.6029 110.6325 19.7476 110.6325 20.7977 C 110.6325 21.8736 110.736 22.8978 110.9601 23.8618 C 111.1842 24.8344 111.5462 25.6779 112.0634 26.3923 C 112.5805 27.1153 113.2356 27.6747 114.0286 28.0965 C 114.8216 28.5096 115.7956 28.7248 116.942 28.7248 C 118.1487 28.7248 119.183 28.458 120.0536 27.933 C 120.9155 27.4079 121.631 26.7538 122.1912 25.9705 C 122.7515 25.1959 123.1652 24.3524 123.4324 23.4401 C 123.691 22.5277 123.8289 21.71 123.8289 20.9698 L 123.8289 20.66 L 123.8289 20.66 ZM 118.6228 14.1616 C 118.6228 14.5748 118.5624 15.1084 118.4418 15.7539 C 118.3211 16.4081 118.1401 17.0364 117.8901 17.6561 C 117.6402 18.2758 117.3126 18.8095 116.8989 19.2484 C 116.4851 19.696 115.9852 19.9112 115.3991 19.9112 L 115.1836 19.9112 C 114.9164 19.9112 114.7613 19.8337 114.7182 19.6702 C 114.6664 19.5152 114.6492 19.3001 114.6492 19.0246 L 114.6492 18.8955 C 114.6492 18.689 114.7009 18.2586 114.8216 17.5959 C 114.9423 16.9331 115.1233 16.2359 115.3732 15.5129 C 115.6232 14.7899 115.9421 14.153 116.3214 13.5936 C 116.7006 13.0341 117.1661 12.7501 117.7005 12.7501 C 118.0453 12.7501 118.2866 12.8878 118.4245 13.146 C 118.5538 13.4128 118.6228 13.6624 118.6228 13.9034 L 118.6228 14.1616 L 118.6228 14.1616 Z" fill="#ffffff"/>			<path d="M 128.2703 26.2398 C 128.1638 26.1454 128.0338 26.051 127.8919 25.9566 C 127.75 25.874 127.5963 25.8033 127.4544 25.7561 C 127.3007 25.7089 127.1706 25.6735 127.0642 25.6735 C 126.9341 25.6735 126.7804 25.6971 126.5912 25.7325 C 126.402 25.7679 126.2247 25.8151 126.0473 25.8858 C 125.8699 25.9566 125.7162 26.051 125.598 26.1454 C 125.4679 26.2516 125.4088 26.3696 125.4088 26.4876 L 125.4088 26.5584 C 125.4797 26.582 125.5152 26.6173 125.5152 26.6527 C 125.5152 26.6999 125.4916 26.7471 125.4679 26.7707 C 125.6926 26.8533 125.9172 26.9477 126.1301 27.0421 C 126.3429 27.1365 126.5794 27.1837 126.8395 27.1837 C 126.9105 27.1837 127.0405 27.1719 127.2061 27.1247 C 127.3716 27.0893 127.549 27.0421 127.7382 26.9713 C 127.9155 26.9005 128.0693 26.8297 128.2112 26.7471 C 128.353 26.6763 128.424 26.6055 128.424 26.5466 C 128.424 26.4522 128.3649 26.346 128.2703 26.2398 L 128.2703 26.2398 Z" fill="#ffffff"/>			<path d="M 133.578 18.4174 C 133.507 18.323 133.4716 18.264 133.4479 18.2168 C 133.2942 17.8983 133.105 17.6741 132.8685 17.5561 C 132.632 17.4381 132.3955 17.3673 132.1591 17.3673 C 132.1118 17.3673 132.0408 17.3791 131.9462 17.4027 C 131.8398 17.4263 131.7334 17.4617 131.6151 17.5089 C 131.4969 17.5561 131.4023 17.6151 131.3077 17.6623 C 131.2131 17.7095 131.1776 17.7685 131.1776 17.8157 C 131.1776 17.8393 131.2013 17.8865 131.2486 17.9455 C 131.2959 18.0163 131.3313 18.0635 131.355 18.0871 C 131.556 18.4056 131.7807 18.6416 132.029 18.7832 C 132.2773 18.9247 132.5256 18.9955 132.7857 18.9955 C 132.8094 18.9955 132.8685 18.9955 132.9631 18.9837 C 133.0577 18.9719 133.1641 18.9483 133.2705 18.9247 C 133.3651 18.9011 133.4597 18.8658 133.5543 18.8068 C 133.6371 18.7596 133.6844 18.6888 133.6844 18.5944 C 133.6844 18.5708 133.6489 18.5118 133.578 18.4174 L 133.578 18.4174 ZM 133.9682 25.2959 C 133.8972 25.2487 133.8263 25.2015 133.7553 25.1779 C 133.6726 25.1543 133.6016 25.1307 133.5307 25.1071 C 133.4597 25.0835 133.4006 25.0717 133.3651 25.0717 L 133.1286 25.1071 L 133.1286 24.9066 L 133.1286 24.3874 L 133.1286 22.7121 C 133.1286 22.4053 133.1286 22.1221 133.1523 21.8626 C 133.1759 21.6148 133.2232 21.4024 133.2942 21.2254 C 133.3178 21.1783 133.3415 21.1311 133.3888 21.0721 C 133.4361 21.0131 133.4597 20.9659 133.4597 20.9187 C 133.4597 20.8479 133.3888 20.7889 133.2587 20.7299 C 133.1286 20.6827 132.9868 20.6355 132.833 20.6001 C 132.6675 20.5647 132.5138 20.5411 132.3719 20.5175 C 132.2182 20.4939 132.1354 20.4821 132.1118 20.4821 C 131.7807 20.4821 131.6151 20.6355 131.6151 20.9187 L 131.6151 21.0957 L 131.6151 21.3434 L 131.6151 25.5555 C 131.1422 25.874 130.7283 26.2398 130.3499 26.6645 C 129.9834 27.0893 129.6641 27.5258 129.404 27.9978 C 129.1438 28.4579 128.9428 28.9298 128.8009 29.4254 C 128.6591 29.8973 128.5881 30.3575 128.5881 30.794 C 128.5881 31.2305 128.7182 31.5963 128.9665 31.9031 C 129.2266 32.198 129.6878 32.3868 130.3736 32.4694 L 130.5864 32.4694 L 130.9175 32.4694 L 131.2368 32.4694 L 131.4023 32.4694 C 131.6861 32.4694 131.9226 32.4104 132.1118 32.316 C 132.3009 32.2098 132.4665 32.0564 132.5966 31.8441 C 132.7266 31.6317 132.833 31.3957 132.904 31.148 C 132.9749 30.8766 133.0222 30.6288 133.0577 30.4047 C 133.0813 30.1569 133.105 29.9445 133.1168 29.7557 C 133.1168 29.567 133.1286 29.4372 133.1286 29.3664 L 133.1286 25.7561 L 133.4597 25.7915 C 133.4834 25.7915 133.5188 25.7915 133.578 25.7797 C 133.6371 25.7679 133.708 25.7443 133.779 25.7207 C 133.8499 25.6971 133.9209 25.6735 133.98 25.6263 C 134.0273 25.5791 134.0628 25.5201 134.0628 25.4493 C 134.0628 25.4021 134.0273 25.3431 133.9682 25.2959 L 133.9682 25.2959 ZM 131.6151 28.0804 C 131.6151 28.2219 131.6033 28.4225 131.6033 28.6585 C 131.6033 28.8945 131.5915 29.1422 131.5797 29.4136 C 131.556 29.6614 131.5324 29.9327 131.4969 30.2159 C 131.4614 30.4754 131.4141 30.7232 131.3432 30.9592 C 131.2722 31.1716 131.1895 31.3603 131.0949 31.5019 C 130.9884 31.6435 130.8702 31.7143 130.7283 31.7143 C 130.5864 31.7143 130.4682 31.6553 130.3854 31.5727 C 130.2908 31.4665 130.2317 31.3485 130.1844 31.2305 C 130.1371 31.1008 130.1134 30.971 130.1134 30.8294 C 130.1016 30.6878 130.1016 30.5698 130.1016 30.4754 C 130.1016 30.1687 130.1371 29.8265 130.208 29.4372 C 130.279 29.036 130.3736 28.6467 130.5036 28.2573 C 130.6337 27.8562 130.7993 27.4786 130.9884 27.1129 C 131.1776 26.7471 131.3786 26.4404 131.6151 26.1808 L 131.6151 28.0804 L 131.6151 28.0804 Z" fill="#ffffff"/>			<path d="M 139.5242 25.3077 C 139.2877 25.0599 139.0276 24.8004 138.7438 24.5408 C 138.46 24.2813 138.1999 24.0217 137.9634 23.7621 C 137.7269 23.5026 137.6086 23.2666 137.6086 23.0306 C 137.6086 22.7592 137.6559 22.4997 137.7742 22.2637 C 137.8806 22.0277 138.0816 21.898 138.3654 21.898 C 138.4364 21.898 138.5073 21.9216 138.5782 21.9688 L 138.7556 22.1103 C 138.8147 22.1575 138.862 22.2047 138.9093 22.2519 C 138.9566 22.2991 139.0039 22.3109 139.0512 22.3109 C 139.2168 22.3109 139.3468 22.2637 139.4532 22.1575 C 139.5478 22.0631 139.6306 21.9452 139.7016 21.8036 C 139.7607 21.662 139.808 21.5204 139.8316 21.3788 C 139.8553 21.2372 139.8789 21.1193 139.8789 21.0367 C 139.8789 20.7889 139.7843 20.6237 139.607 20.5293 C 139.4178 20.4349 139.2404 20.3878 139.0749 20.3878 C 138.8857 20.3878 138.6137 20.4232 138.2826 20.4939 C 137.9397 20.5647 137.6086 20.6827 137.2894 20.8479 C 136.9583 21.0131 136.6864 21.2372 136.4499 21.5204 C 136.2134 21.8036 136.0951 22.1457 136.0951 22.5587 C 136.0951 22.8536 136.1424 23.125 136.2607 23.3728 C 136.3671 23.6205 136.509 23.8447 136.6745 24.0453 C 136.8401 24.2577 137.0293 24.4464 137.2303 24.6234 C 137.4195 24.8004 137.6086 24.9656 137.7742 25.1307 C 137.9397 25.2959 138.0816 25.4611 138.1999 25.6145 C 138.3063 25.7679 138.3654 25.9212 138.3654 26.0864 C 138.3654 26.2516 138.2945 26.3696 138.1762 26.4286 C 138.0461 26.4994 137.9397 26.523 137.8688 26.523 C 137.7032 26.523 137.5495 26.4758 137.4195 26.3814 C 137.2776 26.287 137.1593 26.1808 137.0529 26.0746 L 136.7455 25.7679 C 136.6509 25.6735 136.5445 25.6145 136.4499 25.6145 C 136.3671 25.6145 136.2843 25.6499 136.2134 25.6971 C 136.1306 25.7561 136.0951 25.8504 136.0951 25.9802 C 136.0951 26.2044 136.1543 26.3932 136.2961 26.5466 C 136.438 26.7117 136.6036 26.8297 136.8164 26.9241 C 137.0174 27.0185 137.2184 27.0775 137.4313 27.1247 C 137.6441 27.1719 137.8215 27.1837 137.9752 27.1837 C 138.058 27.1837 138.2117 27.1837 138.4245 27.1601 C 138.6374 27.1483 138.8502 27.1011 139.063 27.0303 C 139.2759 26.9595 139.4651 26.8533 139.6306 26.6999 C 139.7961 26.5466 139.8789 26.3224 139.8789 26.0392 C 139.8789 25.8033 139.7607 25.5673 139.5242 25.3077 L 139.5242 25.3077 Z" fill="#ffffff"/>		</g>	</g></svg>